<?xml version="1.0" encoding="UTF-8"?>
<svg xmlns="http://www.w3.org/2000/svg" xmlns:xlink="http://www.w3.org/1999/xlink" width="24pt" height="24pt" viewBox="0 0 24 24" version="1.1">
<g id="surface1">
<path style=" stroke:none;fill-rule:nonzero;fill:rgb(0%,0%,0%);fill-opacity:1;" d="M 12 0.375 C 5.589844 0.375 0.375 5.589844 0.375 12 C 0.375 18.410156 5.589844 23.625 12 23.625 C 18.410156 23.625 23.625 18.410156 23.625 12 C 23.625 5.589844 18.410156 0.375 12 0.375 Z M 12 22.875 C 6.003906 22.875 1.125 17.996094 1.125 12 C 1.125 6.003906 6.003906 1.125 12 1.125 C 17.996094 1.125 22.875 6.003906 22.875 12 C 22.875 17.996094 17.996094 22.875 12 22.875 Z M 12 22.875 "/>
<path style=" stroke:none;fill-rule:nonzero;fill:rgb(0%,0%,0%);fill-opacity:1;" d="M 15.75 12 C 15.128906 12 14.625 12.503906 14.625 13.125 C 14.625 13.746094 15.128906 14.25 15.75 14.25 C 16.371094 14.25 16.875 13.746094 16.875 13.125 C 16.875 12.503906 16.371094 12 15.75 12 Z M 15.75 13.5 C 15.542969 13.5 15.375 13.332031 15.375 13.125 C 15.375 12.917969 15.542969 12.75 15.75 12.75 C 15.957031 12.75 16.125 12.917969 16.125 13.125 C 16.125 13.332031 15.957031 13.5 15.75 13.5 Z M 15.75 13.5 "/>
<path style=" stroke:none;fill-rule:nonzero;fill:rgb(0%,0%,0%);fill-opacity:1;" d="M 18.683594 4.550781 C 18.675781 4.449219 18.628906 4.351562 18.550781 4.28125 C 16.722656 2.730469 14.398438 1.875 12 1.875 C 6.417969 1.875 1.875 6.417969 1.875 12 C 1.875 14.398438 2.730469 16.722656 4.28125 18.550781 C 4.351562 18.628906 4.449219 18.675781 4.550781 18.683594 C 4.558594 18.683594 4.5625 18.683594 4.566406 18.683594 C 4.667969 18.683594 4.761719 18.644531 4.832031 18.574219 L 18.574219 4.832031 C 18.648438 4.757812 18.6875 4.65625 18.683594 4.550781 Z M 7.191406 10.875 L 6.75 10.875 C 6.542969 10.875 6.375 10.707031 6.375 10.5 C 6.375 10.292969 6.542969 10.125 6.75 10.125 L 7.34375 10.125 Z M 6.375 13.125 C 6.375 12.296875 7.046875 11.625 7.875 11.625 L 10.71875 11.625 L 9.359375 12.984375 C 9.289062 12.429688 8.820312 12 8.25 12 C 7.628906 12 7.125 12.503906 7.125 13.125 C 7.125 13.695312 7.554688 14.164062 8.109375 14.234375 L 7.71875 14.625 L 6.375 14.625 Z M 7.957031 10.875 L 8.375 8.78125 C 8.480469 8.253906 8.945312 7.875 9.480469 7.875 L 14.46875 7.875 L 11.46875 10.875 Z M 8.25 13.5 C 8.042969 13.5 7.875 13.332031 7.875 13.125 C 7.875 12.917969 8.042969 12.75 8.25 12.75 C 8.457031 12.75 8.625 12.917969 8.625 13.125 C 8.625 13.332031 8.457031 13.5 8.25 13.5 Z M 15.117188 7.226562 C 14.925781 7.164062 14.722656 7.125 14.519531 7.125 L 9.480469 7.125 C 8.589844 7.125 7.816406 7.757812 7.640625 8.632812 L 7.492188 9.375 L 6.75 9.375 C 6.128906 9.375 5.625 9.878906 5.625 10.5 C 5.625 10.957031 5.902344 11.351562 6.292969 11.527344 C 5.882812 11.933594 5.625 12.5 5.625 13.125 L 5.625 15 C 5.625 15.207031 5.792969 15.375 6 15.375 L 6.75 15.375 L 6.75 15.59375 L 4.597656 17.75 C 3.324219 16.109375 2.625 14.082031 2.625 12 C 2.625 6.832031 6.832031 2.625 12 2.625 C 14.082031 2.625 16.109375 3.324219 17.75 4.597656 Z M 15.117188 7.226562 "/>
<path style=" stroke:none;fill-rule:nonzero;fill:rgb(0%,0%,0%);fill-opacity:1;" d="M 19.71875 5.449219 C 19.648438 5.371094 19.550781 5.324219 19.449219 5.316406 C 19.339844 5.3125 19.242188 5.351562 19.167969 5.425781 L 5.429688 19.167969 C 5.351562 19.242188 5.3125 19.34375 5.316406 19.449219 C 5.324219 19.550781 5.371094 19.648438 5.449219 19.71875 C 7.277344 21.269531 9.601562 22.125 12 22.125 C 17.582031 22.125 22.125 17.582031 22.125 12 C 22.125 9.601562 21.269531 7.277344 19.71875 5.449219 Z M 15 15.375 L 16.5 15.375 L 16.5 15.75 C 16.5 15.957031 16.332031 16.125 16.125 16.125 L 15.375 16.125 C 15.167969 16.125 15 15.957031 15 15.75 Z M 13.875 14.625 L 13.875 12.75 C 13.875 12.542969 13.707031 12.375 13.5 12.375 L 13.28125 12.375 L 14.03125 11.625 L 16.125 11.625 C 16.953125 11.625 17.625 12.296875 17.625 13.125 L 17.625 14.625 Z M 13.125 13.125 L 13.125 14.625 L 11.03125 14.625 L 12.53125 13.125 Z M 16.042969 10.875 L 14.78125 10.875 L 15.832031 9.824219 Z M 17.25 10.875 L 16.808594 10.875 L 16.65625 10.125 L 17.25 10.125 C 17.457031 10.125 17.625 10.292969 17.625 10.5 C 17.625 10.707031 17.457031 10.875 17.25 10.875 Z M 12 21.375 C 9.917969 21.375 7.890625 20.675781 6.25 19.402344 L 8.796875 16.859375 C 9.277344 16.78125 9.65625 16.40625 9.730469 15.921875 L 10.28125 15.375 L 14.25 15.375 L 14.25 15.75 C 14.25 16.371094 14.753906 16.875 15.375 16.875 L 16.125 16.875 C 16.746094 16.875 17.25 16.371094 17.25 15.75 L 17.25 15.375 L 18 15.375 C 18.207031 15.375 18.375 15.207031 18.375 15 L 18.375 13.125 C 18.375 12.5 18.117188 11.933594 17.707031 11.527344 C 18.097656 11.351562 18.375 10.957031 18.375 10.5 C 18.375 9.878906 17.871094 9.375 17.25 9.375 L 16.507812 9.375 L 16.46875 9.1875 L 19.402344 6.25 C 20.675781 7.890625 21.375 9.917969 21.375 12 C 21.375 17.167969 17.167969 21.375 12 21.375 Z M 12 21.375 "/>
</g>
</svg>
