<svg id="Layer_3" enable-background="new 0 0 64 64" height="512" viewBox="0 0 64 64" width="512" xmlns="http://www.w3.org/2000/svg"><g><path d="m32 1c-17.093 0-31 13.907-31 31s13.907 31 31 31 31-13.907 31-31-13.907-31-31-31zm0 60c-15.991 0-29-13.009-29-29s13.009-29 29-29 29 13.009 29 29-13.009 29-29 29z"/><path d="m42 32c-1.654 0-3 1.346-3 3s1.346 3 3 3 3-1.346 3-3-1.346-3-3-3zm0 4c-.551 0-1-.449-1-1s.449-1 1-1 1 .449 1 1-.449 1-1 1z"/><path d="m49.818 12.14c-.011-.279-.139-.541-.352-.722-4.871-4.139-11.074-6.418-17.466-6.418-14.888 0-27 12.112-27 27 0 6.392 2.279 12.595 6.418 17.467.181.213.442.34.722.352.014 0 .027.001.041.001.265 0 .519-.105.707-.293l36.639-36.639c.197-.198.303-.469.291-.748zm-30.638 16.86h-1.18c-.551 0-1-.449-1-1s.449-1 1-1h1.58zm-2.18 6c0-2.206 1.794-4 4-4h7.586l-3.624 3.624c-.187-1.475-1.436-2.624-2.962-2.624-1.654 0-3 1.346-3 3 0 1.526 1.149 2.775 2.624 2.962l-1.038 1.038h-3.586zm4.22-6 1.118-5.588c.279-1.398 1.516-2.412 2.941-2.412h13.307l-8 8zm.78 7c-.551 0-1-.449-1-1s.449-1 1-1 1 .449 1 1-.449 1-1 1zm18.314-16.728c-.512-.173-1.049-.272-1.593-.272h-13.442c-2.375 0-4.437 1.69-4.903 4.019l-.396 1.981h-1.98c-1.654 0-3 1.346-3 3 0 1.221.735 2.269 1.784 2.737-1.1 1.088-1.784 2.597-1.784 4.263v5c0 .552.448 1 1 1h2v.586l-5.743 5.743c-3.397-4.373-5.257-9.774-5.257-15.329 0-13.785 11.215-25 25-25 5.555 0 10.956 1.86 15.329 5.257z"/><path d="m52.582 14.533c-.181-.213-.442-.34-.722-.352-.284-.01-.55.094-.748.292l-36.638 36.639c-.198.197-.304.469-.292.748.011.279.139.541.352.722 4.871 4.139 11.074 6.418 17.466 6.418 14.888 0 27-12.112 27-27 0-6.392-2.279-12.595-6.418-17.467zm-12.582 26.467h4v1c0 .551-.449 1-1 1h-2c-.551 0-1-.449-1-1zm-3-2v-5c0-.552-.448-1-1-1h-.586l2-2h5.586c2.206 0 4 1.794 4 4v4zm-2-4v4h-5.586l4-4zm7.78-6h-3.366l2.805-2.805zm3.22 0h-1.18l-.4-2h1.58c.551 0 1 .449 1 1s-.449 1-1 1zm-14 28c-5.555 0-10.956-1.86-15.329-5.257l6.789-6.789c1.284-.2 2.293-1.209 2.493-2.493l1.461-1.461h10.586v1c0 1.654 1.346 3 3 3h2c1.654 0 3-1.346 3-3v-1h2c.552 0 1-.448 1-1v-5c0-1.666-.684-3.175-1.784-4.263 1.049-.468 1.784-1.516 1.784-2.737 0-1.654-1.346-3-3-3h-1.98l-.101-.505 7.824-7.824c3.397 4.373 5.257 9.774 5.257 15.329 0 13.785-11.215 25-25 25z"/></g></svg>