<?xml version="1.0" encoding="UTF-8"?>
<svg xmlns="http://www.w3.org/2000/svg" xmlns:xlink="http://www.w3.org/1999/xlink" width="24pt" height="24pt" viewBox="0 0 24 24" version="1.1">
<g id="surface1">
<path style=" stroke:none;fill-rule:nonzero;fill:rgb(0%,0%,0%);fill-opacity:1;" d="M 23.421875 16.292969 C 23.285156 15.886719 23.148438 15.464844 23.007812 14.941406 C 22.757812 13.988281 22.558594 12.171875 22.386719 10.566406 C 22.320312 9.964844 22.257812 9.394531 22.199219 8.914062 C 21.921875 6.707031 20.347656 5.085938 18.820312 4.007812 C 18.476562 3.410156 18.050781 2.847656 17.546875 2.339844 C 16.050781 0.832031 14.082031 0 12 0 C 9.917969 0 7.949219 0.832031 6.453125 2.339844 C 5.949219 2.847656 5.523438 3.410156 5.179688 4.007812 C 3.652344 5.085938 2.078125 6.707031 1.800781 8.914062 C 1.742188 9.394531 1.679688 9.964844 1.613281 10.566406 C 1.441406 12.171875 1.242188 13.988281 0.992188 14.941406 C 0.851562 15.464844 0.714844 15.886719 0.578125 16.292969 C 0.269531 17.230469 0 18.039062 0 19.398438 C 0 20.613281 0.476562 21.761719 1.347656 22.636719 C 2.21875 23.515625 3.375 24 4.601562 24 C 6.71875 24 8.503906 22.5625 9.039062 20.617188 C 9.277344 20.671875 9.519531 20.703125 9.769531 20.703125 L 9.785156 20.703125 C 10.636719 20.703125 11.425781 20.363281 12 19.773438 C 12.574219 20.363281 13.363281 20.703125 14.214844 20.703125 L 14.230469 20.703125 C 14.480469 20.703125 14.722656 20.671875 14.960938 20.617188 C 15.496094 22.5625 17.28125 24 19.398438 24 C 20.625 24 21.78125 23.515625 22.652344 22.636719 C 23.523438 21.761719 24 20.613281 24 19.398438 C 24 18.039062 23.730469 17.230469 23.421875 16.292969 Z M 4.601562 22.59375 C 3.753906 22.59375 2.953125 22.257812 2.34375 21.644531 C 1.738281 21.035156 1.40625 20.238281 1.40625 19.398438 C 1.40625 18.265625 1.617188 17.625 1.914062 16.738281 C 2.046875 16.328125 2.203125 15.867188 2.351562 15.300781 C 2.628906 14.246094 2.832031 12.371094 3.011719 10.71875 C 3.078125 10.121094 3.136719 9.558594 3.199219 9.085938 C 3.308594 8.210938 3.703125 7.441406 4.234375 6.773438 C 4.183594 7.121094 4.15625 7.65625 4.15625 8.011719 L 4.15625 8.015625 C 4.136719 8.828125 4.128906 10.523438 5 12.769531 L 6.503906 16.445312 L 6.585938 17.738281 L 6.585938 17.753906 C 6.652344 18.554688 7.011719 19.300781 7.605469 19.847656 C 7.648438 19.890625 7.695312 19.929688 7.746094 19.96875 C 7.472656 21.460938 6.167969 22.59375 4.601562 22.59375 Z M 11.1875 16.859375 C 10.96875 16.730469 10.832031 16.488281 10.832031 16.234375 C 10.832031 15.832031 11.160156 15.503906 11.5625 15.503906 L 12.4375 15.503906 C 12.839844 15.503906 13.167969 15.832031 13.167969 16.234375 C 13.167969 16.488281 13.03125 16.730469 12.8125 16.859375 L 12 17.347656 Z M 16.105469 16.125 L 16.011719 17.644531 C 15.933594 18.582031 15.164062 19.292969 14.222656 19.296875 C 14.222656 19.296875 14.21875 19.296875 14.214844 19.296875 C 13.628906 19.296875 13.097656 19 12.789062 18.515625 L 13.535156 18.066406 C 14.175781 17.683594 14.574219 16.980469 14.574219 16.234375 C 14.574219 15.054688 13.617188 14.097656 12.4375 14.097656 L 11.5625 14.097656 C 10.382812 14.097656 9.425781 15.054688 9.425781 16.234375 C 9.425781 16.980469 9.824219 17.679688 10.464844 18.066406 L 11.210938 18.515625 C 10.902344 19 10.371094 19.296875 9.785156 19.296875 C 9.78125 19.296875 9.777344 19.296875 9.777344 19.296875 C 8.835938 19.292969 8.066406 18.582031 7.988281 17.644531 L 7.894531 16.125 L 6.308594 12.257812 C 5.539062 10.265625 5.554688 8.757812 5.5625 8.03125 L 5.5625 8.027344 C 5.5625 6.378906 6.253906 4.539062 7.453125 3.328125 C 8.679688 2.089844 10.296875 1.40625 12 1.40625 C 13.703125 1.40625 15.320312 2.089844 16.546875 3.328125 C 17.746094 4.539062 18.433594 6.183594 18.433594 7.832031 C 18.441406 8.558594 18.460938 10.265625 17.691406 12.257812 Z M 21.65625 21.644531 C 21.046875 22.257812 20.246094 22.59375 19.398438 22.59375 C 17.832031 22.59375 16.527344 21.460938 16.253906 19.96875 C 16.304688 19.929688 16.351562 19.890625 16.394531 19.847656 C 16.988281 19.300781 17.347656 18.554688 17.414062 17.753906 L 17.496094 16.445312 L 18.996094 12.785156 L 19 12.769531 C 19.871094 10.523438 19.851562 8.648438 19.839844 7.832031 C 19.839844 7.476562 19.816406 7.121094 19.765625 6.773438 C 20.296875 7.441406 20.691406 8.210938 20.800781 9.085938 C 20.863281 9.558594 20.921875 10.121094 20.988281 10.71875 C 21.167969 12.371094 21.371094 14.246094 21.648438 15.300781 C 21.796875 15.867188 21.953125 16.328125 22.085938 16.738281 C 22.382812 17.625 22.59375 18.265625 22.59375 19.398438 C 22.59375 20.238281 22.261719 21.035156 21.65625 21.644531 Z M 21.65625 21.644531 "/>
<path style=" stroke:none;fill-rule:nonzero;fill:rgb(0%,0%,0%);fill-opacity:1;" d="M 8.132812 9.171875 L 7.429688 9.171875 L 7.429688 10.578125 L 8.835938 10.578125 L 8.835938 9.171875 Z M 8.132812 9.171875 "/>
<path style=" stroke:none;fill-rule:nonzero;fill:rgb(0%,0%,0%);fill-opacity:1;" d="M 16.570312 10.578125 L 16.570312 9.171875 L 15.164062 9.171875 L 15.164062 10.578125 Z M 16.570312 10.578125 "/>
</g>
</svg>
