<?xml version="1.0" encoding="iso-8859-1"?>
<!-- Generator: Adobe Illustrator 19.0.0, SVG Export Plug-In . SVG Version: 6.00 Build 0)  -->
<svg version="1.1" id="Capa_1" xmlns="http://www.w3.org/2000/svg" xmlns:xlink="http://www.w3.org/1999/xlink" x="0px" y="0px"
	 viewBox="0 0 480 480" style="enable-background:new 0 0 480 480;" xml:space="preserve">
<g>
	<g>
		<g>
			<path d="M425.44,96H456c13.255,0,24-10.745,24-24s-10.745-24-24-24H24C10.745,48,0,58.745,0,72s10.745,24,24,24h30.56
				L0.112,422.68c-0.729,4.358,2.213,8.481,6.57,9.21C7.118,431.963,7.559,432,8,432h24c3.63,0.001,6.807-2.443,7.736-5.952
				L91.096,232H296c4.418,0,8-3.582,8-8s-3.582-8-8-8H95.336l14.824-56h259.68l70.4,266.048c0.932,3.518,4.121,5.964,7.76,5.952h24
				c4.418-0.001,7.999-3.584,7.998-8.002c0-0.441-0.037-0.882-0.11-1.318L425.44,96z M24,80c-4.418,0-8-3.582-8-8s3.582-8,8-8h432
				c4.418,0,8,3.582,8,8s-3.582,8-8,8H24z M454.16,416l-70.4-266.048c-0.932-3.518-4.121-5.964-7.76-5.952H104
				c-3.63-0.001-6.807,2.443-7.736,5.952L25.84,416h-8.392L70.776,96h338.448l53.328,320H454.16z"/>
			<path d="M360,216h-32c-4.418,0-8,3.582-8,8s3.582,8,8,8h32c4.418,0,8-3.582,8-8S364.418,216,360,216z"/>
		</g>
	</g>
</g>
<g>
</g>
<g>
</g>
<g>
</g>
<g>
</g>
<g>
</g>
<g>
</g>
<g>
</g>
<g>
</g>
<g>
</g>
<g>
</g>
<g>
</g>
<g>
</g>
<g>
</g>
<g>
</g>
<g>
</g>
</svg>
