<?xml version="1.0" encoding="UTF-8"?>
<svg xmlns="http://www.w3.org/2000/svg" xmlns:xlink="http://www.w3.org/1999/xlink" width="24pt" height="24pt" viewBox="0 0 24 24" version="1.1">
<g id="surface1">
<path style=" stroke:none;fill-rule:nonzero;fill:rgb(0%,0%,0%);fill-opacity:1;" d="M 21.273438 4.800781 L 22.800781 4.800781 C 23.460938 4.800781 24 4.261719 24 3.601562 C 24 2.9375 23.460938 2.398438 22.800781 2.398438 L 1.199219 2.398438 C 0.539062 2.398438 0 2.9375 0 3.601562 C 0 4.261719 0.539062 4.800781 1.199219 4.800781 L 2.726562 4.800781 L 0.00390625 21.132812 C -0.03125 21.351562 0.117188 21.558594 0.335938 21.59375 C 0.355469 21.597656 0.378906 21.601562 0.398438 21.601562 L 1.601562 21.601562 C 1.78125 21.601562 1.941406 21.476562 1.988281 21.300781 L 4.554688 11.601562 L 14.800781 11.601562 C 15.019531 11.601562 15.199219 11.421875 15.199219 11.199219 C 15.199219 10.980469 15.019531 10.800781 14.800781 10.800781 L 4.765625 10.800781 L 5.507812 8 L 18.492188 8 L 22.011719 21.300781 C 22.058594 21.476562 22.21875 21.601562 22.398438 21.601562 L 23.601562 21.601562 C 23.820312 21.601562 24 21.421875 24 21.199219 C 24 21.179688 24 21.15625 23.996094 21.132812 Z M 1.199219 4 C 0.980469 4 0.800781 3.820312 0.800781 3.601562 C 0.800781 3.378906 0.980469 3.199219 1.199219 3.199219 L 22.800781 3.199219 C 23.019531 3.199219 23.199219 3.378906 23.199219 3.601562 C 23.199219 3.820312 23.019531 4 22.800781 4 Z M 22.707031 20.800781 L 19.1875 7.496094 C 19.140625 7.320312 18.980469 7.199219 18.800781 7.199219 L 5.199219 7.199219 C 5.019531 7.199219 4.859375 7.320312 4.8125 7.496094 L 1.292969 20.800781 L 0.871094 20.800781 L 3.539062 4.800781 L 20.460938 4.800781 L 23.128906 20.800781 Z M 22.707031 20.800781 "/>
<path style=" stroke:none;fill-rule:nonzero;fill:rgb(0%,0%,0%);fill-opacity:1;" d="M 18 10.800781 L 16.398438 10.800781 C 16.179688 10.800781 16 10.980469 16 11.199219 C 16 11.421875 16.179688 11.601562 16.398438 11.601562 L 18 11.601562 C 18.222656 11.601562 18.398438 11.421875 18.398438 11.199219 C 18.398438 10.980469 18.222656 10.800781 18 10.800781 Z M 18 10.800781 "/>
</g>
</svg>
